<svg width="45" height="44" viewBox="0 0 45 44" fill="none" xmlns="http://www.w3.org/2000/svg">
<path d="M32.2031 0.758789C28.3854 0.758789 24.7213 2.64103 22.3297 5.61543C19.9381 2.64103 16.274 0.758789 12.4562 0.758789C5.6984 0.758789 0.388672 6.38227 0.388672 13.5394C0.388672 22.3232 7.84862 29.4804 19.1482 40.3555L22.3297 43.3996L25.5111 40.3323C36.8108 29.4803 44.2707 22.3232 44.2707 13.5394C44.2707 6.38227 38.961 0.758789 32.2031 0.758789ZM22.5491 36.8931L22.3297 37.1255L22.1103 36.8931C11.6664 26.8777 4.77688 20.2551 4.77688 13.5394C4.77688 8.89192 8.06803 5.40629 12.4562 5.40629C15.8351 5.40629 19.1263 7.7068 20.2892 10.8903H24.3921C25.5331 7.7068 28.8242 5.40629 32.2031 5.40629C36.5914 5.40629 39.8825 8.89192 39.8825 13.5394C39.8825 20.2551 32.993 26.8777 22.5491 36.8931Z" fill="#1F1687"/>
</svg>
