<svg width="45" height="44" viewBox="0 0 45 44" fill="none" xmlns="http://www.w3.org/2000/svg">
<path d="M32.2031 0.971191C28.3854 0.971191 24.7213 2.85343 22.3297 5.82783C19.9381 2.85343 16.274 0.971191 12.4562 0.971191C5.6984 0.971191 0.388672 6.59467 0.388672 13.7518C0.388672 22.5356 7.84862 29.6928 19.1482 40.5679L22.3297 43.612L25.5111 40.5447C36.8108 29.6928 44.2707 22.5356 44.2707 13.7518C44.2707 6.59467 38.961 0.971191 32.2031 0.971191ZM22.5491 37.1055L22.3297 37.3379L22.1103 37.1055C11.6664 27.0901 4.77688 20.4675 4.77688 13.7518C4.77688 9.10432 8.06803 5.61869 12.4562 5.61869C15.8351 5.61869 19.1263 7.91921 20.2892 11.1027H24.3921C25.5331 7.91921 28.8242 5.61869 32.2031 5.61869C36.5914 5.61869 39.8825 9.10432 39.8825 13.7518C39.8825 20.4675 32.993 27.0901 22.5491 37.1055Z" fill="#7D2E3C"/>
</svg>
