<svg width="16" height="17" viewBox="0 0 16 17" fill="none" xmlns="http://www.w3.org/2000/svg">
<path d="M0.02312 11.3337V14.0051C0.02312 14.6295 0.271226 15.2282 0.712717 15.6699C1.1542 16.1113 1.75307 16.3593 2.37744 16.3593H13.6458C14.2702 16.3593 14.8689 16.1113 15.3105 15.6699C15.752 15.2282 16 14.6295 16 14.0051V11.3337H15.9772C15.9921 11.2276 15.9997 11.1207 16 11.0137V6.87936V6.63933V1.8107C16 1.48717 15.8382 1.18505 15.5691 1.0054C15.2999 0.825766 14.959 0.792307 14.6601 0.916503L12.2858 1.90793C11.7063 2.14271 11.068 2.19063 10.4601 2.04502C8.84855 1.6767 7.17461 1.6767 5.56287 2.04502C4.94757 2.19559 4.30051 2.14753 3.71424 1.90793L1.33992 0.916503C1.0412 0.792307 0.700087 0.825766 0.430853 1.0054C0.161761 1.18502 0.000145178 1.48713 0 1.8107V6.64514V6.88517V11.0137C0.00028357 11.1217 0.00779739 11.2296 0.0228259 11.3365L0.02312 11.3337ZM1.24309 10.5194L2.41443 7.71085H2.41457C2.5355 7.42134 2.76135 7.18828 3.04704 7.05838C3.33272 6.92848 3.65682 6.91164 3.95455 7.01089L4.81172 7.29656C6.89056 7.98972 9.13839 7.98972 11.2173 7.29656L12.0745 7.01089C12.3721 6.91164 12.6964 6.92851 12.982 7.05838C13.2676 7.18825 13.4936 7.42133 13.6145 7.71085L14.7858 10.5194H14.786C14.842 10.6779 14.8662 10.8458 14.8573 11.0137C14.8574 11.2413 14.7938 11.4645 14.6735 11.6579C14.5535 11.8513 14.3815 12.0072 14.1773 12.108L9.83758 14.2451C8.6784 14.8166 7.3195 14.8166 6.16021 14.2451L1.82301 12.108C1.61885 12.0072 1.44703 11.8513 1.32679 11.6579C1.20671 11.4645 1.14305 11.2413 1.14305 11.0137C1.14319 10.8439 1.17722 10.6759 1.243 10.5194H1.24309Z" fill="black"/>
</svg>
