<svg width="42" height="42" viewBox="0 0 42 42" fill="none" xmlns="http://www.w3.org/2000/svg">
<path d="M1.58887 0.998901C2.66921 0.241815 4.20859 0.351107 5.15137 1.30554H5.15039L22.9639 19.2811H22.9629C23.9896 20.3154 23.9141 21.9381 22.8076 22.8866L22.8086 22.8876C22.2935 23.3292 21.643 23.5466 21.002 23.5468C20.3357 23.5468 19.6596 23.3139 19.1387 22.8407L19.0371 22.743L1.22461 4.76746C0.198252 3.73331 0.272842 2.10949 1.37891 1.16101L1.58887 0.998901Z" fill="#333333" stroke="#333333"/>
<path d="M19.2324 19.1001C20.2492 18.2594 21.7915 18.2606 22.8076 19.1343L23.0029 19.3198C23.8571 20.22 23.9175 21.5746 23.1416 22.5396L22.9629 22.7407L5.16797 40.6958L5.16895 40.6968C4.63666 41.2363 3.916 41.5005 3.20605 41.5005C2.64591 41.5005 2.07805 41.3354 1.59766 40.9966L1.39648 40.8413V40.8403C0.291604 39.8908 0.217908 38.2689 1.24121 37.2349H1.24219L19.0361 19.2788L19.2324 19.1001Z" fill="#333333" stroke="#333333"/>
<path d="M36.8506 1.30469C37.8559 0.287564 39.5398 0.229025 40.6221 1.16113L40.8164 1.34668C41.6705 2.24685 41.732 3.60154 40.9561 4.56641L40.7764 4.7666L22.9639 22.7432L22.9629 22.7422C22.4318 23.2811 21.7115 23.5459 21.002 23.5459C20.4418 23.5459 19.8739 23.3817 19.3936 23.043L19.1924 22.8867C18.0874 21.9372 18.0139 20.3153 19.0371 19.2812H19.0381L36.8506 1.30469Z" fill="#333333" stroke="#333333"/>
<path d="M19.1914 19.1324C20.2753 18.2006 21.9561 18.2614 22.9619 19.277L40.7559 37.2321H40.7568C41.7836 38.2664 41.7083 39.891 40.6016 40.8395L40.6006 40.8385C40.0827 41.2856 39.4339 41.4996 38.7939 41.4996C38.1719 41.4996 37.543 41.2966 37.0381 40.8854L36.8301 40.6959L19.0361 22.7389C18.0096 21.7046 18.0848 20.0809 19.1914 19.1324Z" fill="#333333" stroke="#333333"/>
</svg>
